<?xml version="1.0" encoding="utf-8"?>
<!-- Generator: Adobe Illustrator 27.0.0, SVG Export Plug-In . SVG Version: 6.00 Build 0)  -->
<svg version="1.1" id="Layer_1" xmlns="http://www.w3.org/2000/svg" xmlns:xlink="http://www.w3.org/1999/xlink" x="0px" y="0px"
	 viewBox="0 0 379.8 117.3" style="enable-background:new 0 0 379.8 117.3;" xml:space="preserve">
<style type="text/css">
	.st0{fill:#08B051;}
</style>
<g id="Layer_2_00000043424909554674843950000011282721755813024438_">
	<g id="Layer_1-2">
		<path class="st0" d="M68.7,8.3h13.6c0.6,0,1.2,0.5,1.2,1.2v75.2c0,0.6-0.5,1.2-1.2,1.2c0,0,0,0,0,0H68.7c-0.6,0-1.2-0.5-1.2-1.2
			l0,0V9.4C67.5,8.8,68,8.3,68.7,8.3C68.6,8.3,68.6,8.3,68.7,8.3z"/>
		<path class="st0" d="M101.4,82.3c-4.3-2.2-7.8-5.5-10.3-9.6c-2.5-4.2-3.8-9.1-3.7-14c-0.1-4.9,1.2-9.8,3.7-14
			c2.5-4.1,6.1-7.4,10.3-9.6c9.4-4.6,20.4-4.6,29.8,0c4.2,2.2,7.8,5.5,10.3,9.6c2.5,4.2,3.8,9.1,3.7,14c0.1,4.9-1.2,9.8-3.7,14
			c-2.5,4.1-6,7.4-10.3,9.6C121.8,86.9,110.8,86.9,101.4,82.3z M125.9,69.3c2.5-2.7,3.8-6.2,3.8-10.6s-1.3-7.9-3.8-10.6
			c-2.5-2.7-6-4.1-9.6-4c-3.7-0.1-7.2,1.4-9.7,4c-2.5,2.6-3.8,6.2-3.8,10.6s1.3,8,3.8,10.6c2.5,2.6,6,4.1,9.7,4
			C119.9,73.4,123.4,71.9,125.9,69.3z"/>
		<path class="st0" d="M273.5,8.3h13.6c0.6,0,1.2,0.5,1.2,1.2c0,0,0,0,0,0v75.2c0,0.6-0.5,1.2-1.2,1.2c0,0,0,0,0,0h-13.6
			c-0.6,0-1.2-0.5-1.2-1.2v0V9.4C272.4,8.8,272.9,8.3,273.5,8.3C273.5,8.3,273.5,8.3,273.5,8.3z"/>
		<path class="st0" d="M203.1,44.7c-2.5-4.1-6-7.4-10.3-9.6c-3.9-2-8.1-3.1-12.4-3.3c-0.8-0.1-1.6-0.1-2.4-0.1s-1.6,0.1-2.5,0.1
			c-3.6,0.2-7.2,1-10.5,2.5V9.4c0-0.6-0.5-1.2-1.1-1.2h-13.6c-0.6,0-1.2,0.5-1.2,1.2v75.2c0,0.6,0.5,1.2,1.2,1.2h13.6
			c0.6,0,1.2-0.5,1.2-1.2v0v-1.4c4.1,1.8,8.5,2.7,13,2.6c5.2,0.1,10.3-1.1,14.8-3.5c4.2-2.2,7.8-5.5,10.3-9.6
			c2.5-4.2,3.8-9.1,3.7-14C206.9,53.7,205.6,48.9,203.1,44.7z M187.6,69.3c-2.5,2.6-6,4.1-9.6,4c-3.7,0.1-7.2-1.4-9.7-4
			c-1.7-1.8-2.8-4-3.3-6.4c-0.7-2.8-0.7-5.6,0-8.4c0.5-2.4,1.6-4.6,3.3-6.4c2.5-2.6,6-4.1,9.7-4c3.6-0.1,7.1,1.3,9.6,4
			c2.5,2.7,3.8,6.2,3.8,10.6S190.1,66.6,187.6,69.3z"/>
		<path class="st0" d="M252.5,32.7v1.4c-4.1-1.7-8.5-2.6-12.9-2.6c-5.2-0.1-10.3,1.1-14.9,3.5c-4.3,2.2-7.8,5.5-10.3,9.6
			c-2.5,4.2-3.8,9.1-3.7,14c-0.1,4.9,1.2,9.8,3.7,14c2.5,4.1,6.1,7.4,10.3,9.6c4.6,2.4,9.7,3.6,14.9,3.5c4.4,0,8.8-0.8,12.9-2.6v1.4
			c0,0.6,0.5,1.2,1.2,1.2l0,0h13.6c0.6,0,1.2-0.5,1.2-1.2v0V32.7c0-0.6-0.5-1.2-1.2-1.2h-13.6C253.1,31.6,252.5,32.1,252.5,32.7z
			 M249.3,69.3c-2.5,2.7-6,4.1-9.6,4c-3.7,0.1-7.2-1.4-9.7-4c-2.5-2.7-3.8-6.2-3.8-10.6s1.3-7.9,3.8-10.6c2.5-2.6,6-4.1,9.7-4
			c3.6-0.1,7.1,1.3,9.6,4c1.7,1.8,2.8,4,3.3,6.4c0.7,2.8,0.7,5.7,0,8.4C252.1,65.3,250.9,67.5,249.3,69.3z"/>
		<path class="st0" d="M63.6,81.7v-49c0-0.6-0.5-1.2-1.2-1.2H48.8c-0.6,0-1.2,0.5-1.2,1.2v1.5c-4.1-1.8-8.5-2.7-13-2.7
			c-5.2-0.1-10.3,1.2-14.8,3.5c-4.3,2.2-7.8,5.5-10.3,9.6c-2.5,4.2-3.8,9.1-3.7,14c-0.1,4.9,1.2,9.8,3.7,14c2.5,4.1,6,7.4,10.3,9.6
			c4.6,2.4,9.7,3.6,14.9,3.5c4.6-0.1,9.2-1,13.4-2.9l0,0c0,3.6-1.3,7-3.7,9.6c-2.5,2.6-4.6,3.9-8.5,3.9c-0.6,0-1.2,0.5-1.2,1.2v10.2
			c0,0.7,0.5,1.2,1.2,1.2c0,0,0,0,0,0c4.8-0.1,9.5-1.3,13.7-3.4c4.2-2.2,7.8-5.5,10.3-9.6c2.5-4.2,3.8-9.1,3.7-14
			C63.6,81.9,63.6,81.8,63.6,81.7z M47.6,62.5c-0.5,2.5-1.6,4.8-3.3,6.7c-2.5,2.6-6,4.1-9.6,4c-3.6,0.1-7.2-1.4-9.7-4
			c-2.5-2.7-3.8-6.2-3.8-10.6s1.3-7.9,3.8-10.6c2.5-2.6,6-4.1,9.7-4c3.6-0.1,7.1,1.4,9.6,4c1.7,1.9,2.9,4.2,3.3,6.7
			C48.2,57.3,48.2,60,47.6,62.5z"/>
		<path class="st0" d="M374,81.8V40.7c0-0.6-0.5-1.2-1.2-1.2c0,0,0,0,0,0h-13.6c-0.6,0-1.2,0.5-1.2,1.2c0,0,0,0,0,0v32.6
			c-0.6,0-1,0-1.1,0c-4.3-0.6-6.3-1.7-8.6-4s-3.1-5.7-3.3-9.6V48c0-0.3-0.1-0.6-0.4-0.8l-7.7-7.5l-7.5-7.7c-0.2-0.2-0.5-0.4-0.8-0.4
			h-12.1c0.3-2.5,1.3-4.9,3-6.8c2.2-2.4,5.3-3.9,8.5-3.9c0.6,0,1.1-0.5,1.1-1.2V9.3c0-0.5-0.3-0.9-0.8-1h-0.2c-0.1,0-0.2,0-0.3,0
			c-4.7,0.1-9.4,1.3-13.6,3.4c-7.6,3.9-12.7,11.4-13.8,19.8h-7.1c-0.6,0-1.2,0.5-1.2,1.2v13.7c0,0.6,0.5,1.2,1.2,1.2l0,0h6.9v37.1
			c0,0.6,0.5,1.2,1.2,1.2c0,0,0,0,0,0H315c0.6,0,1.2-0.5,1.2-1.1c0,0,0,0,0,0V47.5h12.9v11c0,0,0,0.1,0,0.1c-0.1,4.9,1.2,9.8,3.7,14
			c2.5,4.1,6,7.4,10.2,9.6c4.3,2.2,9,3.4,13.8,3.5h1.2c-0.4,2.5-1.5,4.9-3.3,6.7c-2.5,2.6-4.5,4-8.4,4c-0.6,0-1.2,0.5-1.2,1.2
			c0,0,0,0,0,0v10.2c0,0.6,0.5,1.2,1.1,1.2c0,0,0,0,0,0c4.8-0.1,9.5-1.3,13.7-3.5c4.3-2.2,7.8-5.5,10.3-9.6c2.5-4.2,3.8-9.1,3.7-14
			C374,81.9,374,81.9,374,81.8z"/>
	</g>
</g>
</svg>
